<svg width="29" height="29" viewBox="0 0 29 29" fill="none" xmlns="http://www.w3.org/2000/svg">
<path d="M14.5 0.805054C6.9375 0.805054 0.75 6.9788 0.75 14.5826C0.75 21.4576 5.7825 27.1638 12.355 28.1951V18.5701H8.8625V14.5826H12.355V11.5438C12.355 8.09255 14.4038 6.19505 17.5525 6.19505C19.0513 6.19505 20.6188 6.4563 20.6188 6.4563V9.85255H18.8862C17.1812 9.85255 16.645 10.9113 16.645 11.9976V14.5826H20.4675L19.8488 18.5701H16.645V28.1951C19.8851 27.6833 22.8355 26.0301 24.9637 23.5339C27.0918 21.0376 28.2574 17.8628 28.25 14.5826C28.25 6.9788 22.0625 0.805054 14.5 0.805054Z" fill="white"/>
</svg>
