<svg width="29" height="29" viewBox="0 0 29 29" fill="none" xmlns="http://www.w3.org/2000/svg">
<path d="M14.5551 0.75C7.0476 0.75 0.928848 6.86875 0.928848 14.3762C0.928848 16.7825 1.56135 19.12 2.74385 21.1825L0.818848 28.25L8.0376 26.3525C10.0313 27.4388 12.2726 28.0163 14.5551 28.0163C22.0626 28.0163 28.1814 21.8975 28.1814 14.39C28.1814 10.7463 26.7651 7.3225 24.1938 4.75125C21.6226 2.16625 18.1988 0.75 14.5551 0.75ZM14.5688 3.04625C17.5938 3.04625 20.4263 4.22875 22.5713 6.37375C24.7026 8.51875 25.8851 11.365 25.8851 14.39C25.8851 20.6325 20.7976 25.7062 14.5551 25.7062C12.5201 25.7062 10.5263 25.17 8.79385 24.125L8.38135 23.8913L4.09135 25.0187L5.2326 20.8388L4.9576 20.3988C3.8301 18.625 3.2251 16.5212 3.2251 14.3762C3.23885 8.13375 8.3126 3.04625 14.5688 3.04625ZM9.72885 8.07875C9.50885 8.07875 9.1376 8.16125 8.82135 8.505C8.51885 8.84875 7.6251 9.6875 7.6251 11.3512C7.6251 13.0288 8.84885 14.6375 9.0001 14.8713C9.1926 15.105 11.4201 18.5425 14.8438 20C15.6551 20.3713 16.2876 20.5775 16.7826 20.7288C17.5938 20.99 18.3363 20.9487 18.9276 20.8662C19.5876 20.77 20.9351 20.0413 21.2238 19.2437C21.5126 18.4462 21.5126 17.7725 21.4301 17.6213C21.3338 17.4838 21.1138 17.4013 20.7701 17.25C20.4263 17.0575 18.7488 16.2325 18.4463 16.1225C18.1301 16.0125 17.9376 15.9575 17.6763 16.2875C17.4563 16.6313 16.7963 17.4013 16.6038 17.6213C16.3976 17.855 16.2051 17.8825 15.8751 17.7175C15.5176 17.5387 14.4176 17.1812 13.1251 16.0262C12.1076 15.1187 11.4338 14.005 11.2276 13.6613C11.0626 13.3313 11.2138 13.125 11.3788 12.9738C11.5301 12.8225 11.7501 12.575 11.8876 12.3687C12.0663 12.1762 12.1213 12.025 12.2313 11.805C12.3413 11.5712 12.2863 11.3787 12.2038 11.2137C12.1213 11.0625 11.4338 9.3575 11.1451 8.68375C10.8701 8.02375 10.5951 8.10625 10.3751 8.0925C10.1826 8.0925 9.9626 8.07875 9.72885 8.07875Z" fill="white"/>
</svg>
