<svg xmlns="http://www.w3.org/2000/svg" viewBox="0 0 500 500"><g id="freepik--background-simple--inject-2"><path d="M324.18,23.36S251.45-2.51,180.05,38.67,72.62,161.59,41.69,227.06,28.56,359.14,83.06,389.51s91.56-14.4,168-16.58,97,8.75,160.47-34.44,74.92-145.2,24.87-220.68S324.18,23.36,324.18,23.36Z" style="fill:#EA1D24"></path><path d="M324.18,23.36S251.45-2.51,180.05,38.67,72.62,161.59,41.69,227.06,28.56,359.14,83.06,389.51s91.56-14.4,168-16.58,97,8.75,160.47-34.44,74.92-145.2,24.87-220.68S324.18,23.36,324.18,23.36Z" style="fill:#fff;opacity:0.7000000000000001"></path></g><g id="freepik--Device--inject-2"><rect x="156.87" y="50.04" width="200.26" height="378.27" rx="7.67" style="fill:#263238;stroke:#263238;stroke-linecap:round;stroke-linejoin:round"></rect><rect x="165.78" y="91.57" width="182.46" height="295.2" style="fill:#fff;stroke:#263238;stroke-linecap:round;stroke-linejoin:round"></rect><path d="M276.84,70.91H237.17a2.7,2.7,0,0,1-2.7-2.7h0a2.7,2.7,0,0,1,2.7-2.71h39.67a2.7,2.7,0,0,1,2.7,2.71h0A2.7,2.7,0,0,1,276.84,70.91Z" style="fill:#fff"></path><path d="M267.82,403.44A10.82,10.82,0,1,0,257,414.26,10.81,10.81,0,0,0,267.82,403.44Z" style="fill:#fff;stroke:#263238;stroke-linecap:round;stroke-linejoin:round;stroke-width:0.704333px"></path><rect x="251.52" y="397.95" width="10.97" height="10.97" style="fill:#263238"></rect></g><g id="freepik--character-2--inject-2"><path d="M361.78,274.83l-1.18,9s-4.88,33.43-1.5,50.71,9.76,34.93,10.14,39.06-1.88,20.28.75,33.43,7.51,39.06,7.51,39.06l-4.13,9.77s-8.64,5.63-9.76,7.51a1.69,1.69,0,0,0,.75,2.63h27a15.36,15.36,0,0,0,1.13-6.39V433.32c0-2.63,1.5-47.32,3-55.21s3-67.61,3-67.61H400s7.14,59.34,9,65.73,9.77,33.8,12,39.44,4.89,25.16,6.39,30.05a101.1,101.1,0,0,1,3.38,13.52,33,33,0,0,0,1.88,6.76H453s.38-3.38-1.13-5.63-11.26-12-12.77-19.16S441.36,401,441,389.38s-3.76-13.15-3.76-23.29S441,325.15,441,310.5s-2-28.15-5.67-35.86l-5.22-5.08H365.48Z" style="fill:#d9d9d9;stroke:#263238;stroke-linecap:round;stroke-linejoin:round"></path><path d="M442.15,447.92l0,.05s-5.26-3.38-7.14-.75-1.88,4.13-1.88,4.13h-4a67.18,67.18,0,0,1,1.75,7.89,33,33,0,0,0,1.88,6.76H453s.38-3.38-1.13-5.63C450.81,458.77,445.64,453.43,442.15,447.92Z" style="fill:#EA1D24;stroke:#263238;stroke-linecap:round;stroke-linejoin:round"></path><path d="M432.72,466H453a11.72,11.72,0,0,0-.07-2.61H431.81C432.27,464.89,432.72,466,432.72,466Z" style="fill:#fff;stroke:#263238;stroke-linecap:round;stroke-linejoin:round"></path><path d="M392.53,459.61v-6.38h-7.14s.38-3-3-5.26-6.77,3-6.77,3h-.18l-2.07,4.88s-8.64,5.63-9.76,7.51a1.69,1.69,0,0,0,.75,2.63h27A15.36,15.36,0,0,0,392.53,459.61Z" style="fill:#EA1D24;stroke:#263238;stroke-linecap:round;stroke-linejoin:round"></path><path d="M363.59,463.39a1.69,1.69,0,0,0,.77,2.61h27a11.07,11.07,0,0,0,.78-2.61Z" style="fill:#fff;stroke:#263238;stroke-linecap:round;stroke-linejoin:round"></path><path d="M439,427.36c.63-12.79,2.23-30.18,2-38-.37-11.65-3.76-13.15-3.76-23.29S441,325.15,441,310.5s-2-28.15-5.67-35.86l-5.22-5.08H365.48l-3.7,5.27-1.18,9s-4.88,33.43-1.5,50.71,9.76,34.93,10.14,39.06-1.88,20.28.75,33.43c1.16,5.77,2.74,14,4.16,21.42a70,70,0,0,0,18.46,1.67c.32-10.87,1.62-45.19,2.92-52,1.5-7.89,3-67.61,3-67.61H400s7.14,59.34,9,65.73,9.77,33.8,12,39.44c1,2.4,2,7.32,3,12.56A32.47,32.47,0,0,0,439,427.36Z" style="fill:#fff;stroke:#263238;stroke-linecap:round;stroke-linejoin:round"></path><line x1="404.55" y1="307.12" x2="424.83" y2="290.97" style="fill:none;stroke:#263238;stroke-linecap:round;stroke-linejoin:round"></line><line x1="374.87" y1="292.47" x2="385.39" y2="301.11" style="fill:none;stroke:#263238;stroke-linecap:round;stroke-linejoin:round"></line><path d="M419,110.46s-8.63-5.1-8.43-2.35,3.92,4.7,3.92,4.7-12.36-1.76-14.32-1,1.38,1.77,1.38,1.77-15.3,11.76-20.59,19.8-10,19.81-4.51,28.83,13.53,16.08,27.06,20,26.86-.2,35.88-3.92,18-14.32,16.47-27.65S442.49,123.4,433.66,114s-14.31-8-14.31-6.67A17.75,17.75,0,0,1,419,110.46Z" style="fill:#263238;stroke:#263238;stroke-linecap:round;stroke-linejoin:round"></path><path d="M397.84,166.16l-2,15.09s-14.32,4.7-19.61,6.86-7.65,4.9-8.63,7.25-15,35-15.6,38.1.39,4.51,4.7,6.47S373,234.64,373,234.64l1.57,5.49s-7.85,13.33-9.22,17.64-3.53,17.06-3.53,17.06,14.9,7.45,38.43,6.87,35.1-7.06,35.1-7.06-2.55-12.75-5.29-20.2-5.1-10.39-5.1-13.33,8.63-18.24,8.63-18.24l18.22,8.59s-4.3-14.86-5.48-24.86-3.21-11.63-7.14-15.16-21.17-8.62-21.76-9,.78-16.86.78-16.86S403.33,169.5,397.84,166.16Z" style="fill:#d9d9d9;stroke:#263238;stroke-linecap:round;stroke-linejoin:round"></path><path d="M409.22,176.49c2.74-1,6-3.59,8.56-5.91.21-2.81.39-5,.39-5s-14.84,3.94-20.33.6l-1.35,10C399.53,178.9,404.49,178.27,409.22,176.49Z" style="fill:#263238;stroke:#263238;stroke-linecap:round;stroke-linejoin:round"></path><path d="M430,254.44c-2.75-7.45-5.1-10.39-5.1-13.33s8.63-18.24,8.63-18.24l18.22,8.59s-4.3-14.86-5.48-24.86c-.63-5.41-1.53-8.36-2.83-10.5-27.94,3.55-59-2.82-71.39-5.83a11.69,11.69,0,0,0-4.49,5.09c-1,2.36-15,35-15.6,38.1s.39,4.51,4.7,6.47S373,234.64,373,234.64l1.57,5.49s-7.85,13.33-9.22,17.64-3.53,17.06-3.53,17.06,14.9,7.45,38.43,6.87,35.1-7.06,35.1-7.06S432.76,261.89,430,254.44Z" style="fill:#EA1D24;stroke:#263238;stroke-linecap:round;stroke-linejoin:round"></path><path d="M375.48,229.24s-3.9-8.17-2.84-12.43,1.78-5.33,1.78-5.33" style="fill:none;stroke:#263238;stroke-linecap:round;stroke-linejoin:round"></path><path d="M446.29,206.6c-.63-5.41-1.53-8.36-2.83-10.5-27.94,3.55-59-2.82-71.39-5.83a11.69,11.69,0,0,0-4.49,5.09c-.34.83-2.31,5.42-4.73,11.14,11,3,53.13,13.43,84.87,8.54C447.12,212.13,446.6,209.2,446.29,206.6Z" style="fill:#EA1D24;stroke:#263238;stroke-linecap:round;stroke-linejoin:round"></path><path d="M401.67,129.7l25,16.11-.69,6.51s4.46-4.45,5.15.35-1,7.2-4.12,8.57-4.8,1-4.8,1-7.54,8.22-13,10.28-11.3,2.6-14-1.86-6.54-12.54-5.51-17.34S400,129.7,400,129.7Z" style="fill:#d9d9d9;stroke:#263238;stroke-linecap:round;stroke-linejoin:round"></path><path d="M404.13,144.93a5.35,5.35,0,0,1-1.18,3.33c-1.17,1.18-3.92,2.75-3.92,3.92s2.55,3.53,4.9,3.34" style="fill:none;stroke:#263238;stroke-linecap:round;stroke-linejoin:round"></path><path d="M399.81,158.07a6.72,6.72,0,0,0,7.85-.2" style="fill:none;stroke:#263238;stroke-linecap:round;stroke-linejoin:round"></path><path d="M409.23,147.87s4.31-1.57,6.66,1.76" style="fill:none;stroke:#263238;stroke-linecap:round;stroke-linejoin:round"></path><path d="M395.89,145.91s3.53-1.57,5.3.39" style="fill:none;stroke:#263238;stroke-linecap:round;stroke-linejoin:round"></path><path d="M398.05,139.24a5,5,0,0,1,5.49-1.57" style="fill:none;stroke:#263238;stroke-linecap:round;stroke-linejoin:round"></path><path d="M411.19,139.63s5.49.2,6.66,5.3" style="fill:none;stroke:#263238;stroke-linecap:round;stroke-linejoin:round"></path><path d="M361,227s-6.08,2.35-8,6.08-1.57,12.35,6.07,14.51,64.12-9.22,64.12-9.22a64.86,64.86,0,0,0,4.51,6.08c1.38,1.37,4.91,4.12,5.1,5.29s.59,8.63,2.16,9,1-3.53,1-3.53,2.55-3.72,2.55-5.49.39-7.45,0-8.82-9.61-9.41-11.57-10-52.16-2-56.86-2.75S362.56,226.79,361,227Z" style="fill:#d9d9d9;stroke:#263238;stroke-linecap:round;stroke-linejoin:round"></path><rect x="415.39" y="150.74" width="11.83" height="26.49" rx="2.31" transform="translate(681.4 533.78) rotate(-146.39)" style="fill:#EA1D24;stroke:#263238;stroke-miterlimit:10"></rect><path d="M429,173.35s1.24-3.18,2.47-5.47,1.24-3.36.36-3.36a4.88,4.88,0,0,0-3.89,3.71,18.34,18.34,0,0,0-.35,5.83Z" style="fill:#d9d9d9;stroke:#263238;stroke-miterlimit:10"></path><path d="M418.39,185.54s10.07-10.07,10.42-10.95,0-12.35-.15-15.59a1,1,0,0,0-.85-1h0a1,1,0,0,0-1.21.93l-.79,9.29-2.31-11.7a1,1,0,0,0-1-.84h0a1,1,0,0,0-1,1.09l.65,13-2.9-11.13a1.08,1.08,0,0,0-1.33-.77h0a1.08,1.08,0,0,0-.79,1.16l1.31,12-2.47,2.12v-4.24l-3-5a.84.84,0,0,0-1.09-.32h0a.83.83,0,0,0-.39,1.09l2,4.39s-3.89,15.9-4.07,16.43.71,3.36,1.24,4.42,24.2,51.22,25.61,53.16,10.95,4.95,15.19.35,2.83-9.18.53-14.48S418.39,185.54,418.39,185.54Z" style="fill:#d9d9d9;stroke:#263238;stroke-miterlimit:10"></path></g><g id="freepik--Icons--inject-2"><circle cx="254" cy="149" r="42" style="fill:#EA1D24"></circle><polygon points="279.64 129.99 229.86 129.99 254.4 153.65 279.64 129.99" style="fill:#263238"></polygon><polygon points="264.37 148.41 281.7 163.73 281.7 132.17 264.37 148.41" style="fill:#263238"></polygon><polygon points="244.62 148.38 227.06 131.46 227.06 163.01 244.62 148.38" style="fill:#263238"></polygon><polygon points="262.17 150.47 254.37 157.78 246.79 150.48 228.52 165.7 279.4 165.7 262.17 150.47" style="fill:#263238"></polygon><circle cx="254" cy="241" r="42" style="fill:#EA1D24"></circle><path d="M248.39,227.75a1.86,1.86,0,0,0,2.67.71c1.37-.75,2.74-1.5,4-2.37a5.34,5.34,0,0,0,1.1-1.49c-.25-.59-.38-1-.58-1.36-.54-1-1.12-2-1.69-3l-5.79-10a2,2,0,0,0-3.11-.83c-1.24.7-2.47,1.4-3.68,2.14a1.83,1.83,0,0,0-.75,2.64Q244.46,221,248.39,227.75Z" style="fill:#263238"></path><path d="M277.22,260.66q-3.8-6.6-7.62-13.18a1.89,1.89,0,0,0-2.87-.81q-1.91,1.07-3.78,2.19a1.88,1.88,0,0,0-.83,2.64l8.28,14.13a1.85,1.85,0,0,0,2.19.17c1.34-.73,2.69-1.46,4-2.31a6.24,6.24,0,0,0,1.18-1.45A9.66,9.66,0,0,0,277.22,260.66Z" style="fill:#263238"></path><path d="M260.08,252.41a6,6,0,0,1-5-.44,12.62,12.62,0,0,1-2.38-1.58A23.57,23.57,0,0,1,245.31,238c-.73-3-.93-6,1.37-8.4L238.16,215c-.67.43-1.32.84-1.93,1.27a7.94,7.94,0,0,0-3.73,7.34,47.41,47.41,0,0,0,1.29,8.81,69.76,69.76,0,0,0,14.71,27.08,36.76,36.76,0,0,0,9,7.91,9.77,9.77,0,0,0,11.08-.51Z" style="fill:#263238"></path><circle cx="254" cy="333" r="42" style="fill:#EA1D24"></circle><path d="M247.81,340.87h-9.33v4.73a5.82,5.82,0,0,0,5.41,5.81Z" style="fill:#263238"></path><path d="M273.82,324.67h-4v8.23a8,8,0,0,1-8,8h-.14L247.4,351.43h15.5l-3.83,10.3L273,351.43h.84a5.84,5.84,0,0,0,5.84-5.83V330.5A5.84,5.84,0,0,0,273.82,324.67Z" style="fill:#263238"></path><path d="M261.81,312H232.3a5.83,5.83,0,0,0-5.83,5.83v15.1a5.84,5.84,0,0,0,5.83,5.84h18.59L247.06,349,261,338.74h.84a5.85,5.85,0,0,0,5.84-5.84V317.8A5.84,5.84,0,0,0,261.81,312Z" style="fill:#263238"></path><circle cx="238.97" cy="324.97" r="2.09" style="fill:#EA1D24"></circle><path d="M249.57,325a2.09,2.09,0,1,1-2.09-2.09A2.1,2.1,0,0,1,249.57,325Z" style="fill:#EA1D24"></path><path d="M258.07,325a2.09,2.09,0,1,1-2.08-2.09A2.09,2.09,0,0,1,258.07,325Z" style="fill:#EA1D24"></path></g></svg>